<svg xmlns="http://www.w3.org/2000/svg" xmlns:xlink="http://www.w3.org/1999/xlink" viewBox="0 0 775.35 301.67"><defs><style>.f37faf2d-b7ea-4998-93cd-7a8ef64bf77f{isolation:isolate;}.\39 41a6e73-b978-4011-96a6-63fa3e5b19ca{fill:url(#18e37331-f9e9-4aa7-9b6d-7e1977553acb);}.\33 2048f0f-084a-44bf-b75f-3fc68708f799,.\35 3c259f0-8dea-4bd5-b14a-df9045cf5ef0,.b51deb09-011b-4af4-8f9e-603bc19c91c5{opacity:0.51;}.\32 1cdc87b-032c-4656-ab2a-3a17f1f7d6e6,.\33 2048f0f-084a-44bf-b75f-3fc68708f799,.\33 770d1a1-a528-48b2-ac3c-167c6972130d,.\35 3c259f0-8dea-4bd5-b14a-df9045cf5ef0,.\38 a07e58b-9896-42e4-97d5-1a5725dfc947,.b51deb09-011b-4af4-8f9e-603bc19c91c5,.eb141db0-39ec-420a-83a9-d4c94a954e2a{mix-blend-mode:screen;}.b51deb09-011b-4af4-8f9e-603bc19c91c5{fill:url(#d21852c7-d4a5-4f0c-8d97-f5948510a2a0);}.\32 1cdc87b-032c-4656-ab2a-3a17f1f7d6e6,.\33 770d1a1-a528-48b2-ac3c-167c6972130d,.eb141db0-39ec-420a-83a9-d4c94a954e2a{opacity:0.7;}.\32 1cdc87b-032c-4656-ab2a-3a17f1f7d6e6{fill:url(#9bc20776-52ec-4e96-bfa1-5127dc7082f7);}.\38 a07e58b-9896-42e4-97d5-1a5725dfc947{opacity:0.49;}.f70f3f96-be30-4863-9794-5c921b5cba52{fill:#fff;}.\38 ee8f39e-7b3e-4057-9bed-9777fb01289e{fill:none;stroke:#717171;stroke-miterlimit:1;stroke-width:0.59px;}.\34 2bfad56-62be-492a-9406-8f774fe60370{opacity:0.58;}.e9277f1e-f3f2-4edb-b286-52b9e2405701{fill:url(#d54688de-9d51-4279-b940-c02522b7fb6c);}.d9a8f9dc-b761-49e6-8ce0-80d326e4bcb2{fill:url(#740c8587-349a-47ae-b690-d9444c6f2e1e);}.a371c0b2-070f-4ea3-a573-9dc2c1765d56{fill:url(#3bebad46-6a19-489a-9b33-3eaf1b19c15f);}.cacad4d1-1c7f-497b-8751-64febbe57def{fill:url(#7f46ed61-a8fe-4409-9ee1-c8d1bce594d0);}.\33 2048f0f-084a-44bf-b75f-3fc68708f799{fill:url(#37941aeb-db4f-4558-a2bc-dd582fcd1178);}.eb141db0-39ec-420a-83a9-d4c94a954e2a{fill:url(#aefe5e07-1d7a-4102-a1ac-db4506923b5a);}</style><linearGradient id="18e37331-f9e9-4aa7-9b6d-7e1977553acb" x1="691.84" y1="296.4" x2="577.3" y2="98" gradientUnits="userSpaceOnUse"><stop offset="0" stop-color="#646464"/><stop offset="1" stop-color="#c8c8c8"/></linearGradient><linearGradient id="d21852c7-d4a5-4f0c-8d97-f5948510a2a0" x1="634.45" y1="314.47" x2="634.45" y2="81.26" gradientUnits="userSpaceOnUse"><stop offset="0" stop-color="#0e0e0e"/><stop offset="0.5"/><stop offset="0.52" stop-color="#010101"/><stop offset="0.73" stop-color="#0b0b0b"/><stop offset="1" stop-color="#0e0e0e"/></linearGradient><linearGradient id="9bc20776-52ec-4e96-bfa1-5127dc7082f7" x1="634.45" y1="81.26" x2="634.45" y2="314.47" gradientUnits="userSpaceOnUse"><stop offset="0" stop-color="#fff" stop-opacity="0.77"/><stop offset="0.2" stop-color="#fff" stop-opacity="0.65"/><stop offset="0.34" stop-color="#fff" stop-opacity="0.65"/><stop offset="0.35" stop-color="#fff" stop-opacity="0.65"/><stop offset="0.37" stop-color="#fff" stop-opacity="0.62"/><stop offset="0.4" stop-color="#fff" stop-opacity="0.53"/><stop offset="0.43" stop-color="#fff" stop-opacity="0.39"/><stop offset="0.47" stop-color="#fff" stop-opacity="0.2"/><stop offset="0.51" stop-color="#fff" stop-opacity="0"/><stop offset="0.59" stop-color="#7e7e7e" stop-opacity="0.09"/><stop offset="1" stop-color="#1b1b1b" stop-opacity="0.16"/></linearGradient><linearGradient id="d54688de-9d51-4279-b940-c02522b7fb6c" x1="488.64" y1="306.84" x2="376.43" y2="112.48" gradientTransform="matrix(1.01, 0.06, -0.06, 1.05, 10.11, -42)" xlink:href="#18e37331-f9e9-4aa7-9b6d-7e1977553acb"/><linearGradient id="740c8587-349a-47ae-b690-d9444c6f2e1e" x1="429.34" y1="320.13" x2="429.34" y2="85.27" gradientTransform="matrix(1.01, 0.06, -0.06, 1.05, 10.11, -42)" xlink:href="#d21852c7-d4a5-4f0c-8d97-f5948510a2a0"/><linearGradient id="3bebad46-6a19-489a-9b33-3eaf1b19c15f" x1="429.34" y1="85.27" x2="429.34" y2="320.13" gradientTransform="matrix(1.01, 0.06, -0.06, 1.05, 10.11, -42)" xlink:href="#9bc20776-52ec-4e96-bfa1-5127dc7082f7"/><linearGradient id="7f46ed61-a8fe-4409-9ee1-c8d1bce594d0" x1="497.85" y1="253.4" x2="284.19" y2="-116.67" xlink:href="#18e37331-f9e9-4aa7-9b6d-7e1977553acb"/><linearGradient id="37941aeb-db4f-4558-a2bc-dd582fcd1178" x1="400.23" y1="319.62" x2="400.23" y2="31.25" xlink:href="#d21852c7-d4a5-4f0c-8d97-f5948510a2a0"/><linearGradient id="aefe5e07-1d7a-4102-a1ac-db4506923b5a" x1="400.23" y1="31.25" x2="400.23" y2="319.62" xlink:href="#9bc20776-52ec-4e96-bfa1-5127dc7082f7"/></defs><title>wos</title><g class="f37faf2d-b7ea-4998-93cd-7a8ef64bf77f"><g id="f070c789-db28-42e5-b3ba-d65ed6ee8d38" data-name="s"><path class="941a6e73-b978-4011-96a6-63fa3e5b19ca" d="M522.65,309.19c-6.1-9.78,12.21-53.25,19.33-56.51s83.42,3.26,90.54-2.17S660,228.77,649.8,219s-57,8.69-70.19-1.09-23.4-46.73-24.41-54.34,20.35-66.29,36.62-73.9,137.33-9.78,150.55-7.61-2.54,40.75-10.17,45.64-86.47-6.52-98.67,0-15.26,21.74-11.19,30.43,52.9-1.09,62.05,2.17,22.38,48.9,22.38,67.38-22.38,70.64-31.54,78.25S528.75,319,522.65,309.19Z" transform="translate(-12.31 -24.6)"/><path class="b51deb09-011b-4af4-8f9e-603bc19c91c5" d="M522.65,309.19c-6.1-9.78,12.21-53.25,19.33-56.51s83.42,3.26,90.54-2.17S660,228.77,649.8,219s-57,8.69-70.19-1.09-23.4-46.73-24.41-54.34,20.35-66.29,36.62-73.9,137.33-9.78,150.55-7.61-2.54,40.75-10.17,45.64-86.47-6.52-98.67,0-15.26,21.74-11.19,30.43,52.9-1.09,62.05,2.17,22.38,48.9,22.38,67.38-22.38,70.64-31.54,78.25S528.75,319,522.65,309.19Z" transform="translate(-12.31 -24.6)"/><path class="21cdc87b-032c-4656-ab2a-3a17f1f7d6e6" d="M522.65,309.19c-6.1-9.78,12.21-53.25,19.33-56.51s83.42,3.26,90.54-2.17S660,228.77,649.8,219s-57,8.69-70.19-1.09-23.4-46.73-24.41-54.34,20.35-66.29,36.62-73.9,137.33-9.78,150.55-7.61-2.54,40.75-10.17,45.64-86.47-6.52-98.67,0-15.26,21.74-11.19,30.43,52.9-1.09,62.05,2.17,22.38,48.9,22.38,67.38-22.38,70.64-31.54,78.25S528.75,319,522.65,309.19Z" transform="translate(-12.31 -24.6)"/><g class="8a07e58b-9896-42e4-97d5-1a5725dfc947"><path class="f70f3f96-be30-4863-9794-5c921b5cba52" d="M573.23,307.12a355.5,355.5,0,0,1-35.61-1.34c-3.89-.4-11.64-.31-14.52-3.56a6.62,6.62,0,0,1-.77-1.56c-1.61-3.15,2.89-8-.39,6.57.57-2.52.77-5.12,1.37-7.65A123.51,123.51,0,0,1,530,279.91a97.93,97.93,0,0,1,7.26-14.3c1.48-2.32,3.08-5,5.82-5.89,4.1-1.29,9.52-.66,13.75-.64,7,0,14,.24,20.94.43,13.25.36,26.53.9,39.79.5,4-.12,8.3-.14,12.24-1.1,4.45-1.08,7.92-5,11.18-8,5.88-5.42,11.89-11.76,12-20.16.08-4.58.82-10-.27-14.56-1.29-5.32-6.3-7-11.16-7.43-12.74-1.11-25.89,2.64-38.49,4-10.33,1.14-20.78,2-27.83-6.77-5.42-6.72-9-15-12-23a157.57,157.57,0,0,1-7-23.13c-.21-1-.32-2-.56-2.94,3.29,13.3-.88,14.86.29,9.85.18-.78.33-1.57.52-2.35a141.1,141.1,0,0,1,4.79-15.36c4.56-12.6,9.95-25.15,17-36.6,3.52-5.76,8-13.13,14.54-15.84,4.85-2,10.58-2.47,15.72-3.12,8.12-1,16.28-1.67,24.44-2.23,19.92-1.36,39.89-2.06,59.85-2.45,9.29-.18,18.58-.3,27.86-.25,5.07,0,10.14.07,15.21.29,3.41.15,8.07-.33,10.13,3a14.51,14.51,0,0,1,1,3.33c-2.44-7.22.69-14.14-.1-7.77a48.81,48.81,0,0,1-1.21,6.17,81.14,81.14,0,0,1-5.05,14c-2.72,5.85-5.72,13-12.8,13.77-12.5,1.29-25.65-.49-38.13-1.3-13.37-.87-26.8-1.93-40.21-1.78-10,.11-18.67.88-24.72,9.91-5.3,7.91-4.54,17.25-4.46,26.32,0,3.28,0,6.88,1.38,9.94,1.56,3.43,5.23,4,8.71,4.39,13.17,1.54,26.81-.85,40-1.62,4.17-.24,10.42-1.31,14.31.57,2,1,3.39,3.11,4.54,4.92,4.1,6.48,6.67,14.05,9,21.31a204.48,204.48,0,0,1,6.62,26.25c.66,3.65,1.15,7.32,1.48,11,.41,4.57-2.06,5.74.08-9.06-.13.88-.15,1.78-.26,2.66-.22,1.7-.54,3.39-.89,5.06-3.55,16.82-10.37,33.32-17.84,48.74-2.86,5.91-5.84,12-9.89,17.25-2.87,3.68-6.27,4.43-10.75,5.29-19.26,3.7-39.35,4.33-58.89,5.13q-17.3.71-34.61.74c-.11,0-.1,14,0,14q29.3,0,58.56-2c13-.91,27.72-1,40.28-5.08,3.22-1.05,4.92-3.21,6.81-6a118.29,118.29,0,0,0,8.49-15.31,251.63,251.63,0,0,0,16-41.46c7.11-25.34,1.59-52.56-7.11-76.83-2-5.69-4.26-11.63-7.71-16.64-3.61-5.26-8.23-5-14.37-4.74-11.05.4-22,1.83-33.11,2.1-5.87.15-17.3,1.55-19.74-5.55-.43-1.26-.53-2.57-.84-3.84,2.73,11.25-.81,11,.17,6.93.23-.94.35-1.89.6-2.83a25.56,25.56,0,0,1,5.37-10.13c5.35-6.11,11.69-7.08,19.42-7.36,22.5-.81,45,2.22,67.51,3.07,5.94.22,15.75,2.13,20.28-2.69s7.35-11.89,9.57-18a58.05,58.05,0,0,0,3.75-19.57c.05-5.23,2.22-18-4.86-19.76-7.27-1.84-16.23-.77-23.63-.79-7,0-14,.05-21,.17-16.87.28-33.74.81-50.59,1.69C633,77.21,618.82,78,604.83,80c-4,.58-8.36,1.07-12.13,2.64-5,2.06-8.58,7-11.55,11.24-11.36,16.37-19.85,36.73-24.61,56-2.66,10.82-1.18,22.07,1.85,32.61,3.8,13.23,8.65,28.62,18.13,39,6,6.58,14.6,6.31,22.93,5.62,11.23-.93,22.28-3.42,33.52-4.27,7.51-.57,18.43-1,20,8.59l0-2.05,0,1.33,0-11.95c-.71,7.32-6.87,13.4-12,18.11-2.76,2.54-5.91,6-9.39,7.45-2.57,1.1-5.79,1.15-8.52,1.35-21.48,1.52-43.21-.47-64.71-.65-5.68,0-14.56-1.71-18.7,3.15-5.66,6.64-9.15,15.86-12.15,23.92-3.26,8.77-5.7,17.68-5.77,27.07,0,4.18-1.84,14.27,2,17.49,3.54,3,11.39,2.83,15.66,3.22,11.25,1,22.59,1.16,33.88,1.17C573.33,321.12,573.35,307.12,573.23,307.12Z" transform="translate(-12.31 -24.6)"/></g><path class="8ee8f39e-7b3e-4057-9bed-9777fb01289e" d="M522.65,309.19c-6.1-9.78,12.21-53.25,19.33-56.51s83.42,3.26,90.54-2.17S660,228.77,649.8,219s-57,8.69-70.19-1.09-23.4-46.73-24.41-54.34,20.35-66.29,36.62-73.9,137.33-9.78,150.55-7.61-2.54,40.75-10.17,45.64-86.47-6.52-98.67,0-15.26,21.74-11.19,30.43,52.9-1.09,62.05,2.17,22.38,48.9,22.38,67.38-22.38,70.64-31.54,78.25S528.75,319,522.65,309.19Z" transform="translate(-12.31 -24.6)"/><g class="42bfad56-62be-492a-9406-8f774fe60370"><path d="M522.65,309.13c-2.53-4.49-1-10.71.07-15.49A115.56,115.56,0,0,1,528,277a124.36,124.36,0,0,1,6.8-14.8c1.6-2.92,3.54-7,6.42-8.94,4.22-2.8,12.42-1.49,17.16-1.45,10.72.09,21.44.5,32.16.76,10.16.25,20.38.55,30.54,0,3.08-.16,6.45-.22,9.43-1.14,3.23-1,5.86-3.82,8.35-6,5.52-4.8,13.71-12,13.77-20,.07-9.21-10.4-9.73-17.15-9.42-11.91.55-23.61,3.34-35.47,4.39-9.87.87-18.71.77-25.24-7.53-7.6-9.66-12-22.14-15.58-33.75-2.44-7.85-4.84-14.9-2.75-23A196.37,196.37,0,0,1,567,126.67c4.52-10.34,9.58-21,16.73-29.82a23.36,23.36,0,0,1,14.92-9.06,216.08,216.08,0,0,1,24-3c22.66-1.92,45.43-2.73,68.16-3.21,16.33-.34,33.07-1.21,49.38.26,17.11,1.54.59,38.33-6.86,44.85-4,3.5-11.94,2.24-16.78,2.1-10.67-.29-21.33-1.11-32-1.8-11.11-.71-22.24-1.47-33.38-1.46-7.5,0-15.49-.32-21.57,4.69a25.55,25.55,0,0,0-9,21c.24,3.91,1,7.89,4.91,9.34,3.75,1.39,8.19,1.32,12.12,1.32,11.18,0,22.3-1.4,33.45-2,3.83-.21,8.16-.72,11.94.15,3.12.71,4.91,3.22,6.54,5.83,6.08,9.78,9.42,21.64,12.3,32.69,3,11.42,6.17,24.07,4.13,35.88s-6.28,23.13-10.71,34.1c-4.25,10.52-8.89,21.15-15,30.75-2.88,4.54-5.09,7.23-10.28,8.5a148.23,148.23,0,0,1-19.89,3c-20.7,2.17-41.57,3.1-62.37,3.49-18,.34-36.58.8-54.51-1.72-2.91-.41-8.79-.66-10.7-3.41,0,0,0,.09,0,.12,2,2.92,8.51,3.13,11.58,3.53a236.2,236.2,0,0,0,25,1.59c22,.53,44-.12,66-1.46,9.67-.59,19.35-1.32,29-2.44,6-.7,12.46-1.25,18.27-3.18,5.59-1.86,8.51-8.47,11.15-13.28a244.74,244.74,0,0,0,15.34-34.54c3.53-9.7,7.45-20.3,7.85-30.73.27-7.12-1.19-14.39-2.67-21.31-2.65-12.44-6.19-25.09-11.7-36.59-1.58-3.29-3.5-7.68-6.63-9.82-2.59-1.78-6.25-1.5-9.26-1.46-11.26.15-22.47,1.7-33.72,2.11-6.77.25-19.17,2-21.44-6.39-3.07-11.35,4.11-26.5,16.28-28.75,8.86-1.64,18.37-.89,27.31-.5,11.64.51,23.25,1.38,34.88,2.09,9.1.56,18.48,1.49,27.59.69,7.15-.63,10-6.74,12.92-12.75,3.77-7.74,7.36-16.92,7.17-25.68-.12-5.55-2.46-8.26-7.83-8.69-7-.56-14-.49-21-.51-22.54,0-45.1.55-67.61,1.66-18.15.9-37.64.91-55.35,5.48C588.4,90.21,583.9,96,579.91,102c-6.66,10.05-11.72,21.23-16.17,32.41-3.35,8.41-7.21,17.51-8.4,26.56-.53,4,.9,8,1.93,11.79,3.28,12.15,7.53,24.58,14.12,35.36,2.47,4,5.57,8.68,10,10.85,4.18,2.07,9.36,2,13.91,1.87,12.16-.46,24.09-3.3,36.18-4.41,8.3-.76,24.23-1.09,20.62,12.11-1.56,5.71-6.55,10.61-10.73,14.52-2.84,2.65-6.19,6.28-9.79,7.88-6.3,2.81-15.61,1.72-22.28,1.73-20.64,0-41.51-2.15-62.13-.86-2,.13-4.21.13-5.94,1.27-3,2-5,6.32-6.64,9.34a119.64,119.64,0,0,0-12,32c-.9,4.28-2.2,10.59.14,14.75C522.63,309.22,522.66,309.16,522.65,309.13Z" transform="translate(-12.31 -24.6)"/></g></g><g id="176c29c6-321f-4fb2-8b92-486edee4e815" data-name="o"><path class="e9277f1e-f3f2-4edb-b286-52b9e2405701" d="M519.36,150.68c3.35-11.74,20.44-36.93,30.46-56.57-4.55-18.3-176.24-43.79-201,54.25-4.61,11.67-8.14,21.26-9.4,24.25-3.74,8.9,7.7,64.4,3.88,74.43S305,290.89,313.59,306.26s155,11.33,167.09,5.23,33.88-49.26,38.4-62.11S513.92,169.75,519.36,150.68Zm-46,61.08c-2.67,11.06-7.72,27.75-13.07,33.43s-20.51,3.51-27.36,3.53-16.22.6-23.23-3.35c-7.78-4.39-9.76-13-10.4-21.74-1.51-20.67,1.89-51.74,8.29-61.62s51.25-12.39,56.11-5.45S477.91,193,473.4,211.76Z" transform="translate(-12.31 -24.6)"/><g class="53c259f0-8dea-4bd5-b14a-df9045cf5ef0"><path class="d9a8f9dc-b761-49e6-8ce0-80d326e4bcb2" d="M519.36,150.68c3.35-11.74,20.44-36.93,30.46-56.57-4.55-18.3-176.24-43.79-201,54.25-4.61,11.67-8.14,21.26-9.4,24.25-3.74,8.9,7.7,64.4,3.88,74.43S305,290.89,313.59,306.26s155,11.33,167.09,5.23,33.88-49.26,38.4-62.11S513.92,169.75,519.36,150.68Zm-46,61.08c-2.67,11.06-7.72,27.75-13.07,33.43s-20.51,3.51-27.36,3.53-16.22.6-23.23-3.35c-7.78-4.39-9.76-13-10.4-21.74-1.51-20.67,1.89-51.74,8.29-61.62s51.25-12.39,56.11-5.45S477.91,193,473.4,211.76Z" transform="translate(-12.31 -24.6)"/></g><g class="3770d1a1-a528-48b2-ac3c-167c6972130d"><path class="a371c0b2-070f-4ea3-a573-9dc2c1765d56" d="M519.36,150.68c3.35-11.74,20.44-36.93,30.46-56.57-4.55-18.3-176.24-43.79-201,54.25-4.61,11.67-8.14,21.26-9.4,24.25-3.74,8.9,7.7,64.4,3.88,74.43S305,290.89,313.59,306.26s155,11.33,167.09,5.23,33.88-49.26,38.4-62.11S513.92,169.75,519.36,150.68Zm-46,61.08c-2.67,11.06-7.72,27.75-13.07,33.43s-20.51,3.51-27.36,3.53-16.22.6-23.23-3.35c-7.78-4.39-9.76-13-10.4-21.74-1.51-20.67,1.89-51.74,8.29-61.62s51.25-12.39,56.11-5.45S477.91,193,473.4,211.76Z" transform="translate(-12.31 -24.6)"/></g><g class="8a07e58b-9896-42e4-97d5-1a5725dfc947"><path class="f70f3f96-be30-4863-9794-5c921b5cba52" d="M399.14,309.59c-20.69,0-41.6-.31-62.14-3.08-5.74-.77-11.66-1.65-17.13-3.63a15.41,15.41,0,0,1-4.58-2.28c-1.78-1.47-1.68-3.29-2.61-5.22,4.72,9.83-1.2,12.94.37,8.06.31-1,.5-2,.82-2.95a45.05,45.05,0,0,1,2.34-5.6,104,104,0,0,1,8.33-13.71c5.85-8.39,13.58-16.19,18.28-25.29,3.26-6.31,1.76-15.7,1.65-22.49-.16-10.56-1.56-21.07-2.79-31.55-.65-5.5-1.31-11-1.84-16.51-.3-3.09-.53-6.18-.71-9.27-.39-6.48-1,11.65,0,6.53a27.59,27.59,0,0,1,.58-2.85c2.84-9.09,7.47-17.61,10.08-26.78a80.21,80.21,0,0,1,24.38-38.53c21.13-18.47,49.91-26.15,77.27-29a238.33,238.33,0,0,1,51.39.33,162.11,162.11,0,0,1,31.76,6.4c4.5,1.47,13,3.74,14.83,8.86v-14C542.59,100.34,534.58,113,527.31,126c-4.78,8.58-8.9,16.71-9.67,26.6-2,25.46.83,51.24,2,76.66.08,1.72.15,3.43.2,5.15l.05,1.65q.12,5.91,0-1.95c-.63,2.08-.21,4.62-.73,6.79A49.8,49.8,0,0,1,516,249.1c-3.44,7.82-7.32,15.45-11.45,22.92a179.46,179.46,0,0,1-14.42,22.78c-3.27,4.26-6.93,8.93-12.37,10.27-9.8,2.41-20.43,2.62-30.45,3.2-16,.93-32.1,1.31-48.16,1.31-.1,0-.11,14,0,14,19.12,0,38.28-.47,57.35-1.92,8.63-.66,20.84.08,27.7-6.18,8.53-7.77,14.5-19,20-28.92,5.28-9.52,11-19.6,14.42-30,1.65-5.09,1.34-10.82,1.38-16.1.05-8.23,0-16.45-.4-24.68-.47-10.65-1.2-21.28-1.72-31.92q-.16-3.22-.29-6.45-.07-1.8-.13-3.59c0-.87-.07-5.53-.11-2.89,0,2.18.05-.87.08-1.4q.07-1.64.2-3.27a57.27,57.27,0,0,1,.7-5.8c1.29-7,5.1-13.53,8.52-19.7,5-9,10.4-17.84,15.52-26.81,2.16-3.78,6-8.62,7-12.87.79-3.39.09-7.78.05-11.24,0-4.19-2-5.84-5.63-7.83-12.42-6.75-28.06-8.76-41.88-10.28a240.66,240.66,0,0,0-40.44-1.05c-21.83,1.28-44,5.36-63.92,14.71a95.88,95.88,0,0,0-29.42,20.83c-9.17,9.8-14.84,21.29-18.74,34-2.38,7.77-5.75,15.42-8.73,23-2.13,5.44-1.82,10.79-1.81,16.59,0,18,3,35.67,4.67,53.53.25,2.64.48,5.28.62,7.92.09,1.59.15,5.44.07-1-.09-7.36.18-3.24-.15-2.3a32.28,32.28,0,0,1-4.16,8.36c-5,7.11-10.51,13.77-15.46,20.89-4.48,6.43-9.19,13.42-11.21,21.09-1.62,6.17-1.25,13.55-.77,19.84.62,8.23,8.64,9.53,15.46,10.92,13.82,2.81,28.14,3.5,42.2,4,9.64.37,19.28.5,28.92.51C399.24,323.59,399.26,309.59,399.14,309.59Z" transform="translate(-12.31 -24.6)"/><path class="f70f3f96-be30-4863-9794-5c921b5cba52" d="M433.1,256.08c6.51.11,13.14,1,19.61-.15,5.47-.94,8.62-3.61,11.21-8.36,4.59-8.44,7.23-18.15,9.51-27.44,2.42-9.88,2-20.83,1.38-30.91A108.58,108.58,0,0,0,468,157.63c-1.1-2.91-2.31-7-4.74-9.07-3.27-2.83-9.27-2.91-13.34-3.14-11.46-.65-24.19.22-35,4.4C406,153.26,404,161,402.16,169.76a178.17,178.17,0,0,0-3.52,33.57c-.24,11.91-1.46,25.6,1.93,37.19,4.44,15.21,19.16,15.56,32.53,15.56.1,0,.11-14,0-14-9.89,0-22,.78-28.78-7.89-2.76-3.5-4-7.9-4.74-12.24a73,73,0,0,1-.72-7.58c-.11-2.07.21-6.88-.15,1.77.07-1.71.09-3.42.17-5.13A154.3,154.3,0,0,1,403,180.16c1.87-7.32,4-13.13,11.35-16.13,9.45-3.84,20.48-4.76,30.58-4.75,6.37,0,16.45-.55,20.1,5.71,3.91,6.7,5.92,15,7.54,22.47a150.62,150.62,0,0,1,2.23,16c.51,4.71.54-12,0-5.93-.13,1.44-.24,2.86-.47,4.29-.3,1.86-.74,3.68-1.2,5.5-2.3,9.05-4.87,18.59-9.49,26.77-6.26,11.08-19.71,8.22-30.55,8C433.07,242.08,432.91,256.08,433.1,256.08Z" transform="translate(-12.31 -24.6)"/></g><path class="8ee8f39e-7b3e-4057-9bed-9777fb01289e" d="M519.36,150.68c3.35-11.74,20.44-36.93,30.46-56.57-4.55-18.3-176.24-43.79-201,54.25-4.61,11.67-8.14,21.26-9.4,24.25-3.74,8.9,7.7,64.4,3.88,74.43S305,290.89,313.59,306.26s155,11.33,167.09,5.23,33.88-49.26,38.4-62.11S513.92,169.75,519.36,150.68Zm-46,61.08c-2.67,11.06-7.72,27.75-13.07,33.43s-20.51,3.51-27.36,3.53-16.22.6-23.23-3.35c-7.78-4.39-9.76-13-10.4-21.74-1.51-20.67,1.89-51.74,8.29-61.62s51.25-12.39,56.11-5.45S477.91,193,473.4,211.76Z" transform="translate(-12.31 -24.6)"/><g class="42bfad56-62be-492a-9406-8f774fe60370"><path d="M519.36,150.74c2.79-9.21,8.31-17.75,13.12-26,3.07-5.27,6.18-10.51,9.23-15.79q2-3.41,3.88-6.85c.94-1.69,4.37-6,4.24-7.93-.22-3.24-5.66-5.57-8.06-6.67-8.33-3.85-17.6-5.82-26.59-7.37a233.52,233.52,0,0,0-38.32-3.27c-28.75-.17-59,4.09-84.62,17.83C380,101.22,369,110.13,361,121.49a79.09,79.09,0,0,0-9.88,19.16c-3.46,9.76-6.86,19.51-10.63,29.18-3.18,8.15-1.6,17.12-.71,25.63s2,17.25,3,25.89c.82,7.64,2.88,17.37.8,24.85-1.5,5.4-6.42,10.42-9.72,14.76-5.36,7.06-10.81,14.12-15.29,21.8-3.29,5.64-10.43,18.44-4,24.78,2.24,2.19,6,3.1,8.89,3.88A115.59,115.59,0,0,0,339,314.18a426.4,426.4,0,0,0,43.6,2.66c28.68.58,57.9.48,86.41-3a53.11,53.11,0,0,0,10.12-1.75c4.49-1.47,7.78-5.64,10.6-9.22,10.8-13.7,19.15-29.93,26.22-45.82,2-4.46,3.74-8.66,4.13-13.55.32-3.94.27-7.92.19-11.87-.35-17.4-2-34.75-2.48-52.15-.28-9.31-.92-19.61,1.56-28.78,0,0,0-.08,0-.12-2.69,9.92-1.84,21.15-1.48,31.33.68,19.44,3.15,39.08,2.37,58.54-.53,13-8.13,25.24-14.21,36.45a206.76,206.76,0,0,1-13.8,22.53c-3.12,4.33-7,10.07-12.12,12.22-6.85,2.86-15.88,2.67-23.13,3.23-13.83,1.07-27.71,1.57-41.58,1.82-28.34.51-57.89,1.11-85.87-4.11-6.6-1.23-16.24-2.44-17.23-10.56s4.5-16.62,8.61-23c4.62-7.22,9.94-14,15.09-20.8,2.85-3.79,6.79-8,7.75-12.84a35.33,35.33,0,0,0,.31-7.88c-.47-15.51-3.23-30.92-4.68-46.35-.63-6.76-1.74-13.94.8-20.38,3.68-9.31,7.2-18.65,10.32-28.15A80,80,0,0,1,373,108.18c20.84-18.8,49.5-26.87,76.84-29.85,24.79-2.71,50.66-1.81,75,3.86C532,83.86,540,85.8,546.18,90c2.94,2,4,3.2,2.29,6.6-5.23,10.25-11.4,20-17.16,30-4.42,7.63-9.38,15.5-12,24C519.35,150.66,519.37,150.7,519.36,150.74Z" transform="translate(-12.31 -24.6)"/><path d="M473.4,211.7c-2.5,10.24-5.22,21.74-11,30.7-5.11,7.91-15.59,6.83-23.88,6.46-10.11-.45-22.67,1.69-31.15-5.16-10.64-8.58-8.71-28.37-8.13-40,.55-11,1.69-22.38,4.82-33,1.94-6.6,4.23-10.87,10.78-13.44,7.26-2.84,15.36-3.87,23.09-4.36,7-.45,14.66-.75,21.44,1.27,6.62,2,8.34,10.16,10.18,16.05,4.08,13.05,6.87,27.94,3.86,41.45,0,0,0,.08,0,.12,3.73-16.74-.45-36.88-7.79-52-3-6.19-8.75-6.68-15.2-7.09A99.19,99.19,0,0,0,422,155c-7.25,1.68-13.49,3.83-16.4,11.1-4.2,10.51-5.35,22.52-6.11,33.72a165.55,165.55,0,0,0-.11,23.84c.44,5.75,1.36,11.84,4.77,16.66,3.84,5.41,10.18,7.52,16.53,8.18s12.71.24,19,.51c5.74.24,12.54.76,17.87-1.84,5.05-2.46,7.37-9,9.29-13.91a167.41,167.41,0,0,0,6.56-21.46S473.39,211.74,473.4,211.7Z" transform="translate(-12.31 -24.6)"/></g></g><g id="70b897d1-04be-4c15-a69c-07af4f782668" data-name="W"><path class="cacad4d1-1c7f-497b-8751-64febbe57def" d="M13.51,41.3C6.39,55.43,91.84,244.53,102,275s33.57,60.86,50.86,34.78,29.5-110.85,39.67-111.94,34.59,117.37,54.93,116.28,25.1-117,57-118.46c4.22-.2,7.09,1.54,12.21-3.26,8.5-8,.62-23.38,8.14-30.43,8.12-7.62,22.59,5.46,32.55-2.17,8.4-6.44,2.57-18,8.14-27.17,14.33-23.7,67.73,8.3,97.66-2.17,11.78-4.12,8.14-21.74,31.54-31.52s262,10.71,272.87-1.36,25-46.17,18-58-333.55-8-350.85-1.46-2.56,21.18-12.21,29.34c-24.6,20.82-75.11-16.87-90.54,2.17-7.1,8.76-.17,21.39-9.16,28.26-10,7.65-23.17-4.58-32.55,3.26-8.38,7-2,20.21-11.19,28.26-7.63,6.68-15.17.34-23.4,5.43-16.31,10.1-1,51.08-13.22,50s-17.29-69.55-28.48-83.68-30.52-7.61-40.69,3.26S160,182.58,146.77,185.84,101,48.91,90.82,39.13,20.63,27.17,13.51,41.3Z" transform="translate(-12.31 -24.6)"/><path class="32048f0f-084a-44bf-b75f-3fc68708f799" d="M13.51,41.3C6.39,55.43,91.84,244.53,102,275s33.57,60.86,50.86,34.78,29.5-110.85,39.67-111.94,34.59,117.37,54.93,116.28,25.1-117,57-118.46c4.22-.2,7.09,1.54,12.21-3.26,8.5-8,.62-23.38,8.14-30.43,8.12-7.62,22.59,5.46,32.55-2.17,8.4-6.44,2.57-18,8.14-27.17,14.33-23.7,67.73,8.3,97.66-2.17,11.78-4.12,8.14-21.74,31.54-31.52s262,10.71,272.87-1.36,25-46.17,18-58-333.55-8-350.85-1.46-2.56,21.18-12.21,29.34c-24.6,20.82-75.11-16.87-90.54,2.17-7.1,8.76-.17,21.39-9.16,28.26-10,7.65-23.17-4.58-32.55,3.26-8.38,7-2,20.21-11.19,28.26-7.63,6.68-15.17.34-23.4,5.43-16.31,10.1-1,51.08-13.22,50s-17.29-69.55-28.48-83.68-30.52-7.61-40.69,3.26S160,182.58,146.77,185.84,101,48.91,90.82,39.13,20.63,27.17,13.51,41.3Z" transform="translate(-12.31 -24.6)"/><path class="eb141db0-39ec-420a-83a9-d4c94a954e2a" d="M13.51,41.3C6.39,55.43,91.84,244.53,102,275s33.57,60.86,50.86,34.78,29.5-110.85,39.67-111.94,34.59,117.37,54.93,116.28,25.1-117,57-118.46c4.22-.2,7.09,1.54,12.21-3.26,8.5-8,.62-23.38,8.14-30.43,8.12-7.62,22.59,5.46,32.55-2.17,8.4-6.44,2.57-18,8.14-27.17,14.33-23.7,67.73,8.3,97.66-2.17,11.78-4.12,8.14-21.74,31.54-31.52s262,10.71,272.87-1.36,25-46.17,18-58-333.55-8-350.85-1.46-2.56,21.18-12.21,29.34c-24.6,20.82-75.11-16.87-90.54,2.17-7.1,8.76-.17,21.39-9.16,28.26-10,7.65-23.17-4.58-32.55,3.26-8.38,7-2,20.21-11.19,28.26-7.63,6.68-15.17.34-23.4,5.43-16.31,10.1-1,51.08-13.22,50s-17.29-69.55-28.48-83.68-30.52-7.61-40.69,3.26S160,182.58,146.77,185.84,101,48.91,90.82,39.13,20.63,27.17,13.51,41.3Z" transform="translate(-12.31 -24.6)"/><g class="8a07e58b-9896-42e4-97d5-1a5725dfc947"><path class="f70f3f96-be30-4863-9794-5c921b5cba52" d="M138.13,312.26c-9.42-.37-16.59-8.69-21.65-15.81-6.63-9.32-11-19.76-14.78-30.47-6.86-19.24-15.31-38-23.23-56.8C61.94,169.89,45.2,130.63,30,90.77,24.69,76.69,19.24,62.48,15.4,47.89c-.6-2.27-1.16-4.57-1.55-6.89-.14-.81-.2-1.63-.34-2.44-.92-5.36-2.16,15.18,0,11.08.12-.22,0-.55.16-.77,4.26-7,14.11-8.36,21.61-9.33a131.57,131.57,0,0,1,36.83.6c6.46,1,16.27,2.12,20,8.34,4.4,7.39,6.71,16.44,9.35,24.55,4.2,12.88,8.08,25.87,12,38.83,7,23,13.35,46.78,23.36,68.7,1.5,3.29,4.58,11.89,9,12.62,6.48,1.08,9.83-13.28,10.95-17.23,3.57-12.61,5.57-25.63,8.22-38.45,1.94-9.38,3.29-21.37,10.79-28.14,7.75-7,19.87-11.8,30-7.3,9.7,4.31,12.54,14.93,15.08,24.3,3.5,12.92,5.87,26.12,9,39.12a150.43,150.43,0,0,0,4.27,15.1c1.21,3.41,2.78,8.36,6,10.56,8,5.56,8-10,8-14.14,0-5.13,0-10.27-.1-15.4,0-1.74-.07-3.49-.13-5.23.31,10.71,0,5.65.21,3a37.06,37.06,0,0,1,1.68-9c1.35-3.93,3.75-7.37,7.6-9.15,4.95-2.28,10.2-.59,15.35-1.51,14.07-2.51,10.27-17.19,14.4-26.78,5.7-13.25,20.45-3.45,30.52-5.46,13.48-2.69,8.91-17.13,12.23-26.46,4.09-11.48,17.66-10.29,27.35-8.45,13.29,2.51,26.16,7.25,39.7,8.39,9.18.78,25.67-.32,29-11.23,1.23-4,.62-8.89.6-13,0-2.58,0-5.17-.16-7.75,0-.56-.09-1.14-.13-1.68q-.5-7.61-.13,7.85a12.65,12.65,0,0,1,.35-1.92c4.71-10.35,17.57-9.44,27.33-10.1,17.94-1.23,35.93-1.8,53.91-2.32q81-2.33,162.09-1.43c22,.22,43.94.62,65.88,1.55,13.22.56,26.57,1.07,39.68,2.94,2.63.38,6.17.55,8.55,1.88a3.52,3.52,0,0,1,1.67,1.55c.74,1.14.77,2.55,1.15,3.8,1.56,5.14,1-13.81.07-6.17-.14,1.12-.28,2.24-.47,3.35a97.07,97.07,0,0,1-9.22,26.75c-2.48,5-6.19,14-11.65,16.34-6.06,2.63-14.28,2.18-20.71,2.43-11.88.45-23.78.34-35.66.15-26.94-.44-53.87-1.51-80.79-2.52s-53.72-2.09-80.6-2.51c-11.52-.18-23.06-.28-34.57.22-6.64.29-14,.3-20.14,3.11-8.72,4-14.77,10.3-19.37,18.54-2.21,4-4.15,8.63-8.16,11.13-4.81,3-11.5,3.28-17,3.3-13.72,0-27.25-3.58-40.63-6.19-10.8-2.1-24.23-5.28-34.77-.55a17.3,17.3,0,0,0-9,9.28c-2.35,5.73-1.1,11.9-2.57,17.77-3.8,15.18-19.58,6.36-29.76,6.54-12.09.21-10.57,13.28-11.05,21.78-.3,5.22-1.91,10.18-6.56,13.08-3.85,2.41-8.07.66-12.24,1.68-7.32,1.8-12.08,9.08-15.4,15.29-5.16,9.61-8.46,20.22-11.48,30.66-3.45,11.92-6.34,24-9.57,36-2.77,10.26-5.28,22-11.24,31-10.42,15.73-21.63-11.09-25-19-9.64-22.24-16.22-45.68-24.24-68.51-2.43-6.93-4.61-15.66-9.29-21.52-3.37-4.22-6-.41-7.85,3.25-4.46,8.89-6.72,19.12-9.29,28.66-3.41,12.66-6.61,25.38-10.25,38-3,10.53-6.25,21.14-10.8,31.13-3.72,8.18-9.17,18.19-19.26,18.67-.32,0,.12,14,0,14,10.77-.51,16.32-11.82,20.08-20.52,4.66-10.8,8-22.16,11.17-33.47,3.56-12.65,6.73-25.4,10.22-38.06,2.4-8.69,4.33-19.73,9.74-27.21,3.09-4.28,5.55-1.9,7.67,1.83,4.45,7.83,7.09,16.91,10,25.38,7.82,23,14.4,46.77,25,68.68,2.73,5.65,6.4,14.26,12.49,17.14,6.67,3.15,10.88-6,13-10.74,9.76-22.42,13-47.47,20.6-70.67,3.18-9.72,6.82-20.06,13.22-28.2a23.4,23.4,0,0,1,7.33-6.5c4-2.08,7.26-1,11.48-1.53C321.16,201,320.55,188,320.8,179.8c.16-5.22,1.44-11,6.9-13.06,6.36-2.35,13.55,1.62,19.91,2.08,4.89.35,9.72-1.1,12.37-5.52,3.08-5.13,1.76-11.82,2.85-17.42,2.24-11.46,12.12-15.56,22.84-15.6,13.77,0,27.41,4.05,40.85,6.52,11.41,2.09,26.74,5.2,37.74-.23,7.53-3.72,9.84-14.38,15.18-20.5a35.38,35.38,0,0,1,21.61-12c21.92-3,44.91-1.32,66.95-.73,54.52,1.47,109.09,5.17,163.64,4.72,9.54-.08,19.33,0,28.77-1.54,6.23-1,8.39-3.59,11.82-8.94a104.18,104.18,0,0,0,12.08-26.94c2.57-8.83,2.78-17.28,2.72-26.41,0-3.63.64-10.07-2.85-12.36-2.23-1.46-6-1.61-8.59-2-13.2-1.92-26.65-2.42-40-3-51-2.18-102.21-2-153.29-1.5-44,.44-88.2.62-132.07,4-9.58.73-23.62.58-24.31,13.37-.26,4.79-.16,9.67,0,14.47,0,.93.07,1.86.14,2.78.34,4.59-.88-4,.1-5.61-.39.65-.49,2-.79,2.66a11.72,11.72,0,0,1-3.8,4.44c-9.48,7.34-22.63,6.26-33.7,4.22-13.18-2.44-26.13-7.57-39.59-8.3-4.65-.25-9.72.15-13.62,3-4.82,3.49-5.82,9.13-6.19,14.69-.35,5.09-.24,10.54-3.93,14.53-4.49,4.85-10.8,4.5-16.75,3.43-5.33-.95-11.33-2.71-16.28.47s-5.66,9.27-6.33,14.73-1.73,10.67-6,14.35c-4.92,4.27-10.29,3-16.18,3.35-10.94.64-14.31,10.37-15.07,19.82-.42,5.2-.31,10.47-.3,15.68,0,2.34,0,4.67.06,7,0,1.16,0,2.32.08,3.48.23,9.32-.1-1-.06-1,.35,0-1.43,5.44-2.06,6a4.2,4.2,0,0,1-3.35,1.13c-3.28-.36-5.18-4.31-6.39-6.89-4.94-10.57-6.89-22.74-9.36-34.05-2.64-12.08-4.79-24.68-9.43-36.2-4.05-10.06-13-16.11-24-14.28-9.53,1.58-19.43,7.71-23,16.92-4.5,11.58-6.1,24.43-8.5,36.55-2.2,11.12-3.8,24-9.57,34-3.08,5.32-6.72,6.48-10.38,1.41-4.74-6.56-7.52-14.86-10.31-22.37-9.42-25.38-16.7-51.55-24.68-77.41-3.4-11-6.74-22.1-10.88-32.87-2.62-6.8-4.44-11.42-11.65-14-10.91-3.85-23.27-4.5-34.73-4.37-10,.11-22,.49-30.94,5.5C11.9,33.81,13.34,39,13.36,45.8a58.22,58.22,0,0,0,1.52,14c3.62,14.92,9.28,29.42,14.71,43.75C37,123.18,44.91,142.63,52.9,162c8.42,20.43,17,40.79,25.57,61.16,8,19,16.6,38,23.46,57.46,3.69,10.49,8.08,20.7,14.55,29.81,5.06,7.13,12.22,15.44,21.65,15.81C138,326.26,138.42,312.28,138.13,312.26Z" transform="translate(-12.31 -24.6)"/></g><path class="8ee8f39e-7b3e-4057-9bed-9777fb01289e" d="M13.51,41.3C6.39,55.43,91.84,244.53,102,275s33.57,60.86,50.86,34.78,29.5-110.85,39.67-111.94,34.59,117.37,54.93,116.28,25.1-117,57-118.46c4.22-.2,7.09,1.54,12.21-3.26,8.5-8,.62-23.38,8.14-30.43,8.12-7.62,22.59,5.46,32.55-2.17,8.4-6.44,2.57-18,8.14-27.17,14.33-23.7,67.73,8.3,97.66-2.17,11.78-4.12,8.14-21.74,31.54-31.52s262,10.71,272.87-1.36,25-46.17,18-58-333.55-8-350.85-1.46-2.56,21.18-12.21,29.34c-24.6,20.82-75.11-16.87-90.54,2.17-7.1,8.76-.17,21.39-9.16,28.26-10,7.65-23.17-4.58-32.55,3.26-8.38,7-2,20.21-11.19,28.26-7.63,6.68-15.17.34-23.4,5.43-16.31,10.1-1,51.08-13.22,50s-17.29-69.55-28.48-83.68-30.52-7.61-40.69,3.26S160,182.58,146.77,185.84,101,48.91,90.82,39.13,20.63,27.17,13.51,41.3Z" transform="translate(-12.31 -24.6)"/><g class="42bfad56-62be-492a-9406-8f774fe60370"><path d="M13.51,41.24c-.8,1.73-.39,4.18-.13,6,.89,6.24,2.88,12.37,4.78,18.36,6.37,20,14.15,39.53,21.93,59C57.48,168,76.23,210.93,94,254.27c8,19.66,13.45,42.23,28.91,57.55,4.59,4.54,10.87,8.91,17.68,7.64,6.56-1.23,11-7.11,14.11-12.57,5.82-10.25,9.31-21.89,12.66-33.12,3.93-13.19,7.3-26.54,10.85-39.83,2.69-10.06,5.08-20.67,9.53-30.15,1.62-3.46,4.26-8.28,7.65-3.89,4.13,5.36,6.2,12.91,8.43,19.18,7.6,21.27,13.84,43,22.22,64,3.34,8.36,6.87,17.11,12.22,24.43,2.69,3.69,7.09,8.56,12,5.74,5.36-3.07,7.87-11.21,9.79-16.6,3.5-9.8,6-19.94,8.6-30,2.93-11.36,5.8-22.74,9.4-33.91,3-9.22,6.32-18.74,11.81-26.8,4.48-6.58,9.72-10.43,17.82-10.15s12.58-6.36,13.25-13.85c.56-6.23-1.25-14,3.09-19.12,9.34-11.09,28.56,8.79,36.65-7,3.71-7.21.53-16,4.81-23.2a18,18,0,0,1,11.24-8c12.32-3.19,26.34.81,38.44,3.28,13.41,2.75,27.71,6.24,41.46,4.11,5.33-.83,9.9-2.38,13.13-6.88s5.11-9.56,8.42-13.91c5.39-7.09,13.47-12.38,22.33-13.68,14.81-2.17,30.25-1.49,45.17-1.28,23,.32,45.92,1.17,68.87,2,43.52,1.61,87.42,4.64,131,2.86a103.45,103.45,0,0,0,17-1.6c6.13-1.29,8.53-6,11.66-11.33,6.82-11.57,13-25.84,13.24-39.48.06-3.36.07-8.34-3.08-10.26-2.55-1.55-6.54-1.73-9.41-2.13-5.73-.81-11.51-1.28-17.28-1.69-17.68-1.26-35.42-1.78-53.14-2.18-46.73-1.06-93.51-.93-140.24-.28-37.4.52-74.94.93-112.26,3.6-9.16.66-25,.1-26.24,12.46a31.36,31.36,0,0,0,.07,5.25c.54,8.27-.65,13.18-8.29,17-11.17,5.63-24.88,2.92-36.47.25s-24-7.37-36.13-6.89c-4.49.18-9,1.35-12.22,4.69-5.48,5.71-3.81,13.61-5.13,20.68-1.53,8.24-8.33,11.74-16.23,10.86-6.93-.78-15-4.27-21.11.83s-4.48,13.71-6.47,20.53a15.57,15.57,0,0,1-6.15,8.83c-4,2.65-8.4,2.08-13,2.13-14.47.15-17,13.4-17.21,25.2,0,2.94,0,5.88.11,8.82.1,4.08,1.82,14-2.31,17.35-6,4.85-10.38-9.23-11.46-12.53-3.84-11.79-6.06-24.09-8.75-36.18-2.3-10.34-4.19-21.79-9.24-31.23-7.34-13.7-24.13-13-35.71-5.4-9.23,6-11.52,14.43-13.91,24.69-2.84,12.2-4.79,24.58-7.57,36.8A115.77,115.77,0,0,1,154,176.09c-1.16,3-2.64,6.84-5.39,8.78-4,2.83-6.8-2.51-8.5-5.52-9.43-16.69-14.49-36.43-20.17-54.6-6.78-21.67-13-43.56-20.24-65.07-2.08-6.15-4-12.82-7.34-18.45C88.86,35.29,80,34.06,73.81,33a133.33,133.33,0,0,0-36.3-1.14c-7.4.78-19.9,1.94-24,9.38,0,0,0,.09,0,.12,4.24-7.7,17.41-8.76,25-9.49a132.33,132.33,0,0,1,36.67,1.5c6.06,1.14,14,2.47,17.33,8.29s5.3,12.57,7.42,18.87c7.17,21.28,13.3,42.91,20,64.34,5.66,18.11,10.73,37.7,20,54.38,1.54,2.75,4.22,8.18,8.08,6.1,2.9-1.56,4.5-5.55,5.65-8.41a101.78,101.78,0,0,0,4.38-14.77C161,150,163,137.54,165.71,125.29c2.08-9.3,3.88-18.6,11.72-24.73,11-8.62,28.71-11.55,37.42,1.92,5.48,8.47,7.24,19.93,9.43,29.58,2.72,12,5,24.17,8.43,36,1.2,4.1,4.19,17.77,10.7,16.75,5.33-.83,4.27-10.49,4.21-14.51-.17-10.69-3-30.54,9.53-36.3,8.16-3.75,17.31,1.64,23.78-6.63,4.75-6.06,3-14,5.56-20.83,6.72-17.71,28,1.64,38.19-10.5,4.89-5.83,2.48-14.38,4.52-21.15a14.55,14.55,0,0,1,10.85-10.2c10.84-2.62,23.26,1.89,33.68,4.5,11.89,3,25,6.61,37.31,3.8,7.75-1.78,15-6.22,15-14.84,0-6.3-1.89-13.08,3.82-17.52a16.41,16.41,0,0,1,6.87-3.06A96,96,0,0,1,448,36.28c14.62-1.2,29.31-1.73,44-2.24C536.4,32.5,580.86,32,625.3,31.91c41.36,0,82.84,0,124.14,2.4,10.57.61,21.92.72,32.23,3.47,4.59,1.23,5.41,4,5.67,9,.76,14.68-6.81,31.16-14.42,43.31-3.26,5.2-5.26,8.36-11.13,9.47a114.4,114.4,0,0,1-16.92,1.5c-19.09.74-38.24.2-57.33-.33-46.87-1.3-93.71-3.86-140.59-4.56-15.11-.22-30.65-.85-45.68,1.15A34.88,34.88,0,0,0,479.92,109c-7.06,8-8.69,19.62-20.22,22.34-13.12,3.1-27.3,0-40.23-2.63-12.61-2.54-26.26-6.55-39.23-4.83-4.75.63-9.41,2.31-12.72,5.91-5.39,5.86-4.28,13.35-5.34,20.59-1.15,7.85-6.8,12.38-14.73,11.71-6.13-.52-12.94-4.12-19.1-2.26-6.35,1.92-7.08,8.76-7.24,14.39-.22,7.72.21,17-8.22,20.72-4.1,1.81-8.77-.1-13,1.66a21.05,21.05,0,0,0-7.83,6.25c-5.8,7-9.25,15.94-12.23,24.42-3.8,10.81-6.71,21.92-9.58,33-2.72,10.5-5.28,21.06-8.58,31.4-2.09,6.56-4.36,14.59-9.28,19.69-10.47,10.84-20.84-15.3-23.62-21.7-8.92-20.59-15.24-42.23-22.47-63.44-2.66-7.8-5.2-15.9-9-23.23-1.64-3.13-4-7.38-7.23-3.43-5,6.1-6.81,16.1-8.92,23.48-3.65,12.81-6.84,25.75-10.38,38.59-3.39,12.3-6.91,24.69-11.9,36.45-4.12,9.71-11.4,24.24-24.25,21-7.25-1.82-12.94-8.08-17.25-13.83a103.37,103.37,0,0,1-13-24.09c-2.58-6.53-4.78-13.2-7.38-19.72-7.2-18-14.83-35.85-22.36-53.73-18.38-43.68-37.43-87.31-53-132.1-2.41-6.93-4.75-13.91-6.58-21-.92-3.55-3.13-9.67-1.47-13.24C13.52,41.33,13.49,41.27,13.51,41.24Z" transform="translate(-12.31 -24.6)"/></g></g></g></svg>